<svg xmlns="http://www.w3.org/2000/svg" width="396" viewBox="0 0 396 72" height="72" version="1.0"><g fill="#494949"><g><g><path d="M -1.957031 8.066406 C -1.488281 8.144531 -1.214844 8.226562 -0.585938 8.226562 C 4.464844 8.226562 8.027344 2.898438 8.027344 -2.703125 L 8.027344 -28.277344 C 8.027344 -35.992188 8.265625 -38.773438 11.632812 -38.773438 L 11.632812 -39.164062 L 1.058594 -39.164062 L 1.058594 -38.773438 C 4.425781 -38.773438 4.660156 -35.992188 4.660156 -28.277344 L 4.660156 -2.625 C 4.660156 3.328125 2.585938 7.714844 -1.253906 7.714844 C -1.488281 7.714844 -1.878906 7.675781 -1.878906 7.675781 Z M -1.957031 8.066406" transform="translate(10.469 55.967)"/></g></g></g><g fill="#494949"><g><g><path d="M 1.175781 -6.855469 C 1.175781 -2.78125 3.761719 0.785156 8.304688 0.785156 C 16.097656 0.785156 20.679688 -6.109375 20.679688 -15.625 C 20.679688 -17.507812 20.601562 -19.074219 20.445312 -20.328125 L 25.300781 -7.519531 C 26.789062 -3.5625 26.984375 -0.390625 21.460938 -0.390625 L 21.460938 0 L 34.308594 0 L 34.308594 -0.390625 C 31.917969 -0.390625 30.667969 -2.546875 28.941406 -6.855469 L 16.410156 -39.949219 L 16.019531 -39.949219 C 13.550781 -33.445312 12.101562 -29.570312 9.714844 -23.265625 C 9.320312 -22.246094 9.515625 -21.1875 10.613281 -21.1875 C 12.847656 -21.1875 14.019531 -25.300781 15.902344 -25.300781 C 16.410156 -25.300781 16.839844 -24.988281 16.839844 -24.242188 C 16.839844 -20.171875 1.175781 -16.488281 1.175781 -6.855469 Z M 4.503906 -7.597656 C 4.503906 -17.273438 17.273438 -18.917969 17.273438 -24.164062 C 17.273438 -25.183594 16.722656 -25.691406 15.980469 -25.691406 C 13.902344 -25.691406 12.453125 -21.578125 10.652344 -21.578125 C 10.027344 -21.578125 9.714844 -22.050781 10.222656 -23.421875 L 14.726562 -35.40625 L 19.464844 -22.910156 C 20.171875 -20.601562 20.289062 -18.445312 20.289062 -15.546875 C 20.289062 -9.125 17.195312 -1.097656 10.652344 -1.097656 C 6.816406 -1.097656 4.503906 -3.917969 4.503906 -7.597656 Z M 4.503906 -7.597656" transform="translate(22.884 55.967)"/></g></g></g><g fill="#494949"><g><g><path d="M 1.175781 -39.164062 L 1.175781 -38.773438 C 4.542969 -38.773438 4.777344 -35.992188 4.777344 -28.277344 L 4.777344 -10.886719 C 4.777344 -3.171875 4.542969 -0.390625 1.175781 -0.390625 L 1.175781 0 L 11.75 0 L 11.75 -0.390625 C 8.382812 -0.390625 5.167969 -4.972656 5.167969 -16.371094 L 5.167969 -36.972656 L 29.960938 0.785156 L 30.351562 0.785156 L 30.351562 -28.277344 C 30.351562 -35.992188 30.585938 -38.773438 33.957031 -38.773438 L 33.957031 -39.164062 L 23.382812 -39.164062 L 23.382812 -38.773438 C 26.75 -38.773438 29.960938 -34.191406 29.960938 -22.792969 L 29.960938 -5.71875 L 8.027344 -39.164062 Z M 1.175781 -39.164062" transform="translate(57.191 55.967)"/></g></g></g><g fill="#494949"><g><g><path d="M 1.175781 -38.773438 C 4.542969 -38.773438 4.777344 -35.992188 4.777344 -28.277344 L 4.777344 -10.886719 C 4.777344 -3.171875 4.542969 -0.390625 1.175781 -0.390625 L 1.175781 0 L 29.21875 0 L 29.21875 -6.460938 L 28.824219 -6.460938 C 28.824219 -0.824219 16.878906 -0.390625 13.160156 -0.390625 L 8.144531 -0.390625 L 8.144531 -21.304688 C 8.773438 -22.128906 9.753906 -22.714844 10.886719 -22.675781 C 13.667969 -22.597656 15.664062 -19.230469 20.445312 -19.230469 C 23.539062 -19.230469 25.457031 -21.226562 25.457031 -23.539062 L 25.066406 -23.539062 C 25.066406 -22.167969 23.65625 -21.304688 22.167969 -21.304688 C 18.722656 -21.304688 16.566406 -23.734375 12.691406 -23.734375 C 10.886719 -23.734375 9.320312 -23.066406 8.144531 -21.933594 L 8.144531 -38.773438 L 14.648438 -38.773438 C 23.65625 -38.773438 28.824219 -36.660156 28.824219 -34.035156 L 28.824219 -33.878906 L 29.21875 -33.878906 L 29.21875 -39.164062 L 1.175781 -39.164062 Z M 1.175781 -38.773438" transform="translate(92.321 55.967)"/></g></g></g><g fill="#494949"><g><g><path d="M 2.351562 -12.296875 C 2.351562 -5.089844 6.539062 0.785156 16.644531 0.785156 C 22.597656 0.785156 31.410156 -2.429688 31.410156 -10.300781 C 31.410156 -15.117188 27.769531 -16.410156 25.769531 -16.410156 C 21.660156 -16.410156 19.542969 -13.160156 16.488281 -13.160156 C 14.921875 -13.160156 14.097656 -14.609375 14.097656 -15.824219 C 14.097656 -18.5625 18.171875 -20.210938 21.1875 -20.210938 C 25.027344 -20.210938 25.574219 -19.152344 29.058594 -19.152344 C 33.015625 -19.152344 33.445312 -22.128906 32.859375 -22.753906 C 32.195312 -21.933594 31.566406 -21.617188 30.390625 -21.617188 C 27.847656 -21.617188 26.28125 -22.714844 22.792969 -22.714844 C 18.328125 -22.714844 13.707031 -19.230469 13.707031 -15.824219 C 13.707031 -14.175781 14.84375 -12.769531 16.488281 -12.769531 C 19.230469 -12.769531 20.484375 -14.960938 23.65625 -14.960938 C 26.476562 -14.960938 27.769531 -12.609375 27.769531 -9.792969 C 27.769531 -5.40625 23.890625 0.3125 16.605469 0.3125 C 9.910156 0.3125 5.71875 -5.367188 5.71875 -11.242188 C 5.71875 -18.015625 9.910156 -23.105469 15.707031 -23.105469 C 16.917969 -23.105469 17.859375 -23.421875 17.859375 -24.59375 C 17.859375 -25.496094 16.957031 -25.847656 15.625 -25.847656 C 12.691406 -25.847656 7.597656 -26.082031 7.597656 -31.761719 C 7.597656 -34.152344 9.59375 -39.476562 16.878906 -39.476562 C 23.226562 -39.476562 25.300781 -35.875 25.300781 -32.9375 C 25.300781 -31.449219 24.59375 -29.097656 22.714844 -29.097656 C 21.894531 -29.097656 21.226562 -29.375 20.757812 -30.195312 C 20.445312 -30.039062 20.25 -29.648438 20.25 -29.21875 C 20.25 -27.492188 21.777344 -26.59375 23.5 -26.59375 C 26.003906 -26.59375 28.394531 -28.433594 28.394531 -32.234375 C 28.394531 -37.480469 21.699219 -39.949219 16.878906 -39.949219 C 7.832031 -39.949219 4.191406 -35.40625 4.191406 -31.644531 C 4.191406 -26.75 8.265625 -25.105469 12.21875 -25.105469 C 13.589844 -25.105469 14.335938 -25.457031 15.625 -25.457031 C 16.761719 -25.457031 17.46875 -25.261719 17.46875 -24.554688 C 17.46875 -23.695312 16.683594 -23.460938 14.84375 -23.460938 C 7.832031 -23.460938 2.351562 -18.132812 2.351562 -12.296875 Z M 2.351562 -12.296875" transform="translate(136.42 55.967)"/></g></g></g><g fill="#494949"><g><g><path d="M 1.175781 -39.164062 L 1.175781 -33.878906 L 1.566406 -33.878906 C 1.566406 -33.996094 1.527344 -33.878906 1.527344 -34.035156 C 1.527344 -36.660156 6.460938 -38.773438 13.199219 -38.773438 L 13.199219 -10.886719 C 13.199219 -3.171875 12.964844 -0.390625 9.59375 -0.390625 L 9.59375 0 L 19.816406 0 L 19.816406 -0.390625 C 16.449219 -0.390625 16.527344 -3.171875 16.527344 -10.886719 L 16.527344 -38.773438 C 23.265625 -38.773438 28.199219 -36.660156 28.199219 -34.035156 C 28.199219 -33.878906 28.160156 -33.996094 28.160156 -33.878906 L 28.550781 -33.878906 L 28.550781 -39.164062 Z M 1.175781 -39.164062" transform="translate(185.532 55.967)"/></g></g></g><g fill="#494949"><g><g><path d="M 1.175781 0 L 11.710938 0 L 11.710938 -0.390625 C 8.34375 -0.390625 8.105469 -3.171875 8.105469 -10.886719 L 8.105469 -38.148438 C 10.496094 -39.007812 12.375 -39.398438 15.273438 -39.398438 C 22.558594 -39.398438 27.140625 -35.40625 27.140625 -28.902344 C 27.140625 -24.203125 23.96875 -19.386719 19.074219 -19.386719 C 15.429688 -19.386719 13.628906 -21.617188 11.320312 -21.617188 C 10.613281 -21.617188 9.949219 -21.226562 9.949219 -20.289062 C 9.949219 -17.625 14.097656 -17.46875 17.898438 -11.75 C 24.085938 -2.46875 25.183594 0 26.984375 0 L 32.976562 0 L 32.976562 -0.390625 C 28.511719 -0.390625 24.871094 -7.363281 21.777344 -12.179688 C 18.601562 -17.113281 10.339844 -17.664062 10.339844 -20.210938 C 10.339844 -21.109375 11.003906 -21.226562 11.476562 -21.226562 C 13.121094 -21.226562 15.625 -18.722656 19.308594 -18.722656 C 26.125 -18.722656 30.507812 -23.578125 30.507812 -28.941406 C 30.507812 -35.328125 25.847656 -39.949219 17.507812 -39.949219 C 12.964844 -39.949219 10.183594 -39.164062 5.875 -39.164062 L 1.175781 -39.164062 L 1.175781 -38.773438 C 4.542969 -38.773438 4.777344 -35.992188 4.777344 -28.277344 L 4.777344 -10.886719 C 4.777344 -3.171875 4.542969 -0.390625 1.175781 -0.390625 Z M 1.175781 0" transform="translate(215.257 55.967)"/></g></g></g><g fill="#494949"><g><g><path d="M 1.175781 -38.773438 C 4.542969 -38.773438 4.777344 -35.992188 4.777344 -28.277344 L 4.777344 -10.886719 C 4.777344 -3.171875 4.542969 -0.390625 1.175781 -0.390625 L 1.175781 0 L 29.21875 0 L 29.21875 -6.460938 L 28.824219 -6.460938 C 28.824219 -0.824219 16.878906 -0.390625 13.160156 -0.390625 L 8.144531 -0.390625 L 8.144531 -21.304688 C 8.773438 -22.128906 9.753906 -22.714844 10.886719 -22.675781 C 13.667969 -22.597656 15.664062 -19.230469 20.445312 -19.230469 C 23.539062 -19.230469 25.457031 -21.226562 25.457031 -23.539062 L 25.066406 -23.539062 C 25.066406 -22.167969 23.65625 -21.304688 22.167969 -21.304688 C 18.722656 -21.304688 16.566406 -23.734375 12.691406 -23.734375 C 10.886719 -23.734375 9.320312 -23.066406 8.144531 -21.933594 L 8.144531 -38.773438 L 14.648438 -38.773438 C 23.65625 -38.773438 28.824219 -36.660156 28.824219 -34.035156 L 28.824219 -33.878906 L 29.21875 -33.878906 L 29.21875 -39.164062 L 1.175781 -39.164062 Z M 1.175781 -38.773438" transform="translate(249.408 55.967)"/></g></g></g><g fill="#494949"><g><g><path d="M 0 -38.773438 C 2.390625 -38.773438 3.640625 -36.621094 5.367188 -32.3125 L 17.898438 0.785156 L 18.289062 0.785156 L 30.824219 -32.3125 C 32.46875 -36.660156 33.800781 -38.773438 36.1875 -38.773438 L 36.1875 -39.164062 L 25.105469 -39.164062 L 25.105469 -38.773438 C 30.628906 -38.773438 30.546875 -34.660156 29.53125 -31.527344 C 26.515625 -22.246094 22.832031 -13.003906 19.582031 -3.761719 L 9.007812 -31.644531 C 7.519531 -35.601562 7.324219 -38.773438 12.847656 -38.773438 L 12.847656 -39.164062 L 0 -39.164062 Z M 0 -38.773438" transform="translate(279.8 55.967)"/></g></g></g><g fill="#494949"><g><g><path d="M 19.777344 0.785156 C 29.53125 0.785156 37.207031 -7.832031 37.207031 -19.582031 C 37.207031 -31.332031 29.53125 -39.949219 19.777344 -39.949219 C 10.027344 -39.949219 2.351562 -31.332031 2.351562 -19.582031 C 2.351562 -7.832031 10.027344 0.785156 19.777344 0.785156 Z M 19.777344 -39.476562 C 27.886719 -39.476562 33.683594 -31.019531 33.683594 -19.582031 C 33.683594 -8.144531 27.335938 0.3125 19.777344 0.3125 C 12.21875 0.3125 5.875 -8.144531 5.875 -19.582031 C 5.875 -31.019531 11.671875 -39.476562 19.777344 -39.476562 Z M 19.777344 -39.476562" transform="translate(315.987 55.967)"/></g></g></g><g fill="#494949"><g><g><path d="M 1.175781 0 L 11.710938 0 L 11.710938 -0.390625 C 8.34375 -0.390625 8.105469 -3.171875 8.105469 -10.886719 L 8.105469 -38.148438 C 10.496094 -39.007812 12.375 -39.398438 15.273438 -39.398438 C 22.558594 -39.398438 27.140625 -35.40625 27.140625 -28.902344 C 27.140625 -24.203125 23.96875 -19.386719 19.074219 -19.386719 C 15.429688 -19.386719 13.628906 -21.617188 11.320312 -21.617188 C 10.613281 -21.617188 9.949219 -21.226562 9.949219 -20.289062 C 9.949219 -17.625 14.097656 -17.46875 17.898438 -11.75 C 24.085938 -2.46875 25.183594 0 26.984375 0 L 32.976562 0 L 32.976562 -0.390625 C 28.511719 -0.390625 24.871094 -7.363281 21.777344 -12.179688 C 18.601562 -17.113281 10.339844 -17.664062 10.339844 -20.210938 C 10.339844 -21.109375 11.003906 -21.226562 11.476562 -21.226562 C 13.121094 -21.226562 15.625 -18.722656 19.308594 -18.722656 C 26.125 -18.722656 30.507812 -23.578125 30.507812 -28.941406 C 30.507812 -35.328125 25.847656 -39.949219 17.507812 -39.949219 C 12.964844 -39.949219 10.183594 -39.164062 5.875 -39.164062 L 1.175781 -39.164062 L 1.175781 -38.773438 C 4.542969 -38.773438 4.777344 -35.992188 4.777344 -28.277344 L 4.777344 -10.886719 C 4.777344 -3.171875 4.542969 -0.390625 1.175781 -0.390625 Z M 1.175781 0" transform="translate(355.543 55.967)"/></g></g></g></svg>